<svg xmlns="http://www.w3.org/2000/svg" viewBox="0 0 60 51"><defs><style>.cls-1{fill:#eaeaea;}</style></defs><title>case2Fichier 3</title><g id="Calque_2" data-name="Calque 2"><g id="Capa_1" data-name="Capa 1"><path class="cls-1" d="M57,9H55V6H45V9H41V3.2A3.16,3.16,0,0,0,37.8,0H22.2A3.16,3.16,0,0,0,19,3.2V9H15V6H5V9H3a3,3,0,0,0-3,3V48a3,3,0,0,0,3,3H57a3,3,0,0,0,3-3V12A3.08,3.08,0,0,0,57,9ZM47,8h6V9H47ZM21,3.2A1.16,1.16,0,0,1,22.2,2H37.8A1.16,1.16,0,0,1,39,3.2V9H21ZM14.8,11H57.6V49H2.4V11H14.8ZM7,8h6V9H7Z"/></g></g></svg>