<svg height="512pt" viewBox="0 0 512 512" width="512pt" xmlns="http://www.w3.org/2000/svg" style="fill: rgba(0, 0, 0, 0.5);"><path d="m481.960938 290.015625c16.5625 0 30.039062-13.476563 30.039062-30.039063 0-6.160156-.566406-6.574218-10.320312-35.835937-1.945313-5.847656-4.265626-11.667969-6.871094-17.367187 4.617187-23.84375 6.691406-41.242188 6.691406-56.0625 0-40.734376-12.332031-78.9375-34.730469-107.578126-21.433593-27.410156-49.777343-43.12890575-77.765625-43.12890575-28.027344 0-56.539062 15.69921875-78.226562 43.07812475-22.746094 28.714844-35.273438 66.941407-35.273438 107.628907 0 19.757812 4.238282 37.3125 8.59375 54.230468-2.996094 6.261719-5.609375 12.703125-7.769531 19.195313-9.808594 29.398437-10.332031 29.675781-10.332031 35.839843 0 16.5625 13.460937 30.039063 30.007812 30.039063.960938 0 1.910156-.058594 2.851563-.144531.234375 5.578125.339843 11.214844.289062 17.019531-.144531 16.703125-3.640625 110.761719-3.640625 115.8125 0 27.34375 13.308594 55.03125 34.734375 72.253906 4.304688 3.457031 10.601563 2.773438 14.058594-1.53125 3.460937-4.304687 2.777344-10.597656-1.527344-14.058593-16.816406-13.519532-27.265625-35.230469-27.265625-56.664063 0-4.679687 3.492188-98.648437 3.640625-115.636719.082031-9.273437-.199219-18.167968-.816406-27.035156 2.71875-3.03125 4.816406-6.585938 6.140625-10.542969l8.792969-26.371093c14.011719-42.035157 43.585937-61.449219 55.726562-68.765626 27.539063 17.238282 46.289063 40.359376 55.757813 68.765626l8.792968 26.386718c1.164063 3.472656 2.929688 6.667969 5.203126 9.460938-8.296876 40.015625-16.742188 97.878906-16.742188 146.496094 0 15.9375-9.234375 39.429687-26.886719 53.492187-4.320312 3.441406-5.03125 9.730469-1.589843 14.050781 3.449218 4.332032 9.746093 5.019532 14.050781 1.589844 23.78125-18.941406 34.425781-48.371094 34.425781-69.132812 0-44.53125 7.359375-97.285157 14.992188-135.867188 1.636718.28125 3.300781.421875 4.96875.421875zm-92.957032-270.015625c21.792969 0 44.394532 12.921875 62.011719 35.449219 19.65625 25.140625 30.484375 58.96875 30.484375 95.261719 0 8.261718-.738281 17.546874-2.304688 28.664062-15.445312-22.347656-36.121093-41.988281-60.203124-56.96875v-31.695312c0-16.542969-13.457032-30-30-30-16.542969 0-30 13.457031-30 30v32.289062c-24.128907 15.175781-44.859376 34.820312-60.257813 56.894531-1.902344-9.441406-3.230469-19.132812-3.230469-29.183593 0-77.03125 49.273438-130.710938 93.5-130.710938zm7.628906 135.582031c-8.378906-5.027343-9.609374-3.328125-15.933593.429688-12.175781 7.234375-49.234375 29.25-66.414063 80.785156l-8.78125 26.347656c-1.40625 4.1875-5.25 6.871094-9.5 6.871094-5.519531 0-10.007812-4.503906-10.007812-10.039063 0-2.347656.3125-2.539062 9.304687-29.519531 13.085938-39.304687 43.28125-72.195312 78.792969-93.246093 3.035156-1.800782 4.898438-5.070313 4.898438-8.601563v-37.898437c0-5.515626 4.488281-10 10-10 5.515624 0 10 4.484374 10 10v37.339843c0 3.550781 1.886718 6.839844 4.953124 8.632813 36.050782 21.066406 65.601563 54.253906 78.757813 93.777344 9.015625 27.042968 9.296875 27.1875 9.296875 29.515624 0 11.328126-15.90625 13.890626-19.492188 3.1875l-8.789062-26.367187c-11.320312-33.964844-33.890625-61.289063-67.085938-81.214844zm0 0"/><path d="m30.039062 290.015625c1.671876 0 3.335938-.140625 4.976563-.421875 7.628906 38.601562 14.984375 91.359375 14.984375 135.871094 0 20.753906 10.640625 50.179687 34.417969 69.125 4.308593 3.429687 10.601562 2.738281 14.050781-1.589844 3.441406-4.320312 2.730469-10.613281-1.589844-14.050781-17.644531-14.0625-26.878906-37.550781-26.878906-53.484375 0-48.59375-8.445312-106.472656-16.734375-146.507813 2.277344-2.792969 4.042969-5.988281 5.210937-9.46875l8.789063-26.367187c9.464844-28.398438 28.210937-51.519532 55.75-68.765625 12.148437 7.316406 41.714844 26.726562 55.734375 68.765625l8.796875 26.390625c1.320313 3.933593 3.414063 7.488281 6.128906 10.519531-.617187 8.839844-.902343 17.730469-.820312 27.035156.152343 16.941406 3.640625 110.9375 3.640625 115.636719 0 21.4375-10.449219 43.15625-27.269532 56.671875-4.304687 3.457031-4.992187 9.753906-1.53125 14.058594 3.457032 4.304687 9.75 4.988281 14.058594 1.53125 21.429688-17.222656 34.742188-44.910156 34.742188-72.261719 0-5.074219-3.492188-99.15625-3.640625-115.816406-.050781-5.820313.054687-11.453125.292969-17.019531.941406.089843 1.890624.148437 2.847656.148437 16.546875 0 30.011718-13.476563 30.011718-30.039063 0-6.21875-.613281-6.695312-10.324218-35.84375-2.164063-6.492187-4.773438-12.960937-7.757813-19.277343 4.347657-16.855469 8.570313-34.355469 8.570313-54.148438 0-92.050781-61.054688-150.707031-113.496094-150.707031-52.164062 0-112.5 58.300781-112.5 150.707031 0 14.84375 2.082031 32.269531 6.714844 56.167969-2.625 5.671875-4.945313 11.457031-6.882813 17.257812-9.800781 29.40625-10.332031 29.679688-10.332031 35.84375 0 16.5625 13.476562 30.039063 30.039062 30.039063zm185.957032-20c-4.363282 0-8.113282-2.777344-9.484375-6.851563l-8.789063-26.371093c-17.191406-51.550781-54.253906-73.558594-66.433594-80.789063-6.023437-3.578125-7.441406-5.511718-15.933593-.410156-33.183594 19.933594-55.75 47.253906-67.0625 81.203125l-8.785157 26.351563c-1.324218 3.949218-5.035156 6.871093-9.46875 6.871093-5.535156 0-10.039062-4.503906-10.039062-10.042969 0-2.324218.28125-2.4375 9.304688-29.515624 13.320312-39.941407 43.964843-72.863282 79.738281-93.777344 3.070312-1.792969 4.953125-5.082032 4.953125-8.632813v-37.339843c0-5.515626 4.488281-10 10-10 5.515625 0 10 4.484374 10 10v37.898437c0 3.53125 1.863281 6.800781 4.902344 8.601563 39.34375 23.324218 65.816406 57.273437 77.808593 93.246093 9.015625 27.058594 9.296875 27.179688 9.296875 29.519531 0 5.535157-4.488281 10.039063-10.007812 10.039063zm-93-250.015625c44.226562 0 93.5 53.679688 93.5 130.710938 0 9.941406-1.292969 19.507812-3.148438 28.816406-15.207031-22.199219-35.34375-41.429688-59.351562-56.527344v-32.289062c0-16.542969-13.457032-30-30-30-16.539063 0-29.996094 13.457031-29.996094 30v31.691406c-24.554688 15.234375-45.558594 34.996094-61.144531 57.3125-1.601563-11.265625-2.355469-20.660156-2.355469-29.003906 0-61.277344 37.609375-130.710938 92.496094-130.710938zm0 0"/><path d="m142.996094 501.992188c0 5.523437-4.476563 10-10 10-5.519532 0-10-4.476563-10-10 0-5.523438 4.480468-10 10-10 5.523437 0 10 4.476562 10 10zm0 0"/><path d="m388.992188 501.992188c0 5.523437-4.476563 10-10 10-5.523438 0-10-4.476563-10-10 0-5.523438 4.476562-10 10-10 5.523437 0 10 4.476562 10 10zm0 0"/></svg>
