<svg height="512pt" viewBox="-157 0 511 512" width="512pt" xmlns="http://www.w3.org/2000/svg" style="fill: rgba(0, 0, 0, 0.5);"><path d="m169.652344 141.382812h-12.625v-22.722656c0-4.183594-3.390625-7.574218-7.574219-7.574218h-12.621094v-42.921876c0-4.179687-3.390625-7.570312-7.574219-7.570312h-7.574218v-15.148438h12.621094c12.53125 0 22.722656-10.195312 22.722656-22.722656 0-12.53125-10.191406-22.722656-22.722656-22.722656h-45.78125c-4.179688 0-7.574219 3.390625-7.574219 7.574219 0 4.183593 3.394531 7.574219 7.574219 7.574219h45.78125c4.179687 0 7.574218 3.398437 7.574218 7.574218 0 4.175782-3.394531 7.574219-7.574218 7.574219h-118.65625v-15.148437h37.617187c4.179687 0 7.574219-3.390626 7.574219-7.574219 0-4.183594-3.390625-7.574219-7.574219-7.574219h-45.191406c-4.183594 0-7.574219 3.390625-7.574219 7.574219v30.296875c0 4.183594 3.390625 7.574218 7.574219 7.574218h68.164062v15.148438h-7.574219c-4.179687 0-7.570312 3.390625-7.570312 7.570312v42.921876h-12.625c-4.183594 0-7.574219 3.390624-7.574219 7.574218v22.722656h-12.625c-15.3125 0-27.769531 12.457032-27.769531 27.769532v234.855468c0 4.183594 3.390625 7.574219 7.574219 7.574219 4.183593 0 7.574219-3.390625 7.574219-7.574219v-234.855468c0-6.960938 5.664062-12.625 12.621093-12.625h.546875l17.957032 69.683594h-18.503907c-3.101562 0-5.890625 1.890624-7.039062 4.777343-1.144531 2.882813-.414063 6.175781 1.84375 8.304688l70.691406 66.652343c1.460937 1.375 3.328125 2.0625 5.195313 2.0625 1.871093 0 3.738281-.6875 5.195312-2.0625l70.691406-66.652343c2.257813-2.128907 2.988282-5.421875 1.84375-8.304688-1.144531-2.886719-3.933594-4.777343-7.039062-4.777343h-18.5l17.957031-69.683594h.542969c6.960937 0 12.625 5.664062 12.625 12.625v93.496094c0 4.183593 3.390625 7.574218 7.574218 7.574218 4.183594 0 7.574219-3.390625 7.574219-7.574218v-93.496094c-.003906-15.3125-12.460937-27.769532-27.773437-27.769532zm-78.265625-95.9375h15.148437v15.148438h-15.148437zm-15.148438 30.292969h45.445313v35.347657h-45.445313zm-20.195312 50.496094h85.835937v15.148437h-85.835937zm77.996093 105.660156c-.582031 2.265625-.085937 4.675781 1.351563 6.527344 1.433594 1.851563 3.644531 2.9375 5.984375 2.9375h9.203125l-51.617187 48.664063-51.617188-48.667969h9.203125c2.34375 0 4.550781-1.082031 5.988281-2.933594 1.433594-1.851563 1.929688-4.261719 1.347656-6.53125l-19.425781-75.363281h109.007813zm0 0"/><path d="m189.847656 290.367188c-4.183594 0-7.574218 3.390624-7.574218 7.574218v186.289063c0 6.960937-5.660157 12.621093-12.621094 12.621093h-141.382813c-6.960937 0-12.621093-5.664062-12.621093-12.621093v-44.816407c0-4.179687-3.390626-7.570312-7.574219-7.570312-4.183594 0-7.574219 3.390625-7.574219 7.570312v44.816407c0 15.3125 12.457031 27.769531 27.769531 27.769531h141.382813c15.3125 0 27.769531-12.460938 27.769531-27.769531v-186.289063c0-4.183594-3.390625-7.574218-7.574219-7.574218zm0 0"/><path d="m22.714844 375.164062c0 12.953126 15.9375 22.722657 37.066406 22.722657 5.027344 0 9.90625-.59375 14.382812-1.6875l-30.515624 29.679687c-1.464844 1.425782-2.292969 3.382813-2.292969 5.429688v31.714844c0 4.179687 3.390625 7.574218 7.574219 7.574218 4.183593 0 7.574218-3.394531 7.574218-7.574218v-28.515626l19.898438-19.351562c1.125 21.886719 8.289062 43.320312 22.558594 43.320312 14.269531 0 21.433593-21.4375 22.558593-43.320312l19.898438 19.351562v28.515626c0 4.179687 3.390625 7.574218 7.574219 7.574218 4.183593 0 7.574218-3.394531 7.574218-7.574218v-31.714844c0-2.046875-.828125-4.003906-2.292968-5.429688l-30.515626-29.679687c4.476563 1.09375 9.355469 1.6875 14.382813 1.6875 21.128906 0 37.066406-9.769531 37.066406-22.722657 0-12.75-15.441406-22.40625-36.074219-22.707031l11.5625-11.246093c1.464844-1.429688 2.292969-3.386719 2.292969-5.433594v-32.3125c0-4.183594-3.390625-7.574219-7.574219-7.574219-4.183593 0-7.574218 3.390625-7.574218 7.574219v29.113281l-17.425782 16.949219c-3.097656-10.050782-11.542968-17.285156-21.453124-17.285156-9.914063 0-18.355469 7.234374-21.453126 17.285156l-17.425781-16.949219v-29.113281c0-4.183594-3.390625-7.574219-7.574219-7.574219-4.183593 0-7.574218 3.390625-7.574218 7.574219v32.316406c0 2.042969.828125 4.003906 2.292968 5.429688l11.5625 11.246093c-20.632812.300781-36.074218 9.957031-36.074218 22.707031zm93.824218-.734374c.503907-.828126 1.773438-1.726563 1.773438-1.726563 3.226562-2.425781 10.160156-5.113281 19.828125-5.113281 14.140625 0 21.917969 5.6875 21.917969 7.574218 0 1.886719-7.777344 7.574219-21.917969 7.574219-10.074219 0-16.960937-3.230469-20.226563-5.417969-.601562-.40625-1.203124-.941406-1.382812-1.242187-.359375-.589844-.269531-1.195313.007812-1.648437zm-22.816406-8.875c-.035156-.050782-.070312-.105469-.105468-.160157-.015626-.015625-.027344-.039062-.039063-.054687-1.414063-2.003906-2.191406-4.609375-2.191406-7.34375 0-5.75 3.46875-10.605469 7.574219-10.605469 4.105468 0 7.574218 4.855469 7.574218 10.605469 0 2.734375-.777344 5.339844-2.191406 7.34375-.011719.015625-.023438.039062-.039062.054687-.035157.054688-.070313.109375-.105469.160157-3.160157 4.625-3.851563 10.535156-1.84375 15.867187 2.65625 7.042969 4.179687 17.09375 4.179687 27.570313 0 19.570312-4.886718 31.101562-7.574218 33.914062-2.6875-2.8125-7.574219-14.34375-7.574219-33.914062 0-10.476563 1.523437-20.527344 4.179687-27.570313 2.007813-5.332031 1.316406-11.242187-1.84375-15.867187zm-33.941406 2.035156c9.667969 0 16.601562 2.6875 19.828125 5.113281 0 0 1.269531.898437 1.773437 1.726563.277344.453124.367188 1.058593.007813 1.648437-.179687.300781-.78125.835937-1.382813 1.242187-3.265624 2.1875-10.152343 5.417969-20.226562 5.417969-14.140625 0-21.917969-5.6875-21.917969-7.574219 0-1.886718 7.773438-7.574218 21.917969-7.574218zm0 0"/></svg>
