<svg height="511pt" viewBox="-120 1 511 511.99952" width="511pt" xmlns="http://www.w3.org/2000/svg" style="fill: rgba(0, 0, 0, 0.5);"><path d="m270.132812 50.84375v-40.84375c0-5.523438-4.480468-10-10-10h-247.988281c-5.523437 0-10 4.476562-10 10v40.84375c-2.160156 160.304688-3.34375 304.574219 4.007813 446.761719.261718 5.0625 4.273437 9.128906 9.328125 9.460937 12.480469.824219 72.183593 4.097656 84.554687 4.910156 5.207032.347657 9.828125-3.394531 10.5625-8.578124 9.765625-68.984376 18.488282-145.792969 25.542969-224.183594 7.050781 78.394531 15.777344 155.210937 25.542969 224.183594.703125 4.960937 4.949218 8.601562 9.894531 8.601562.21875 0 .441406-.007812.664063-.023438 12.371093-.8125 72.074218-4.085937 84.554687-4.90625 5.058594-.335937 9.066406-4.398437 9.328125-9.464843.597656-11.5625 1.15625-23.523438 1.660156-35.542969.230469-5.515625-4.054687-10.175781-9.574218-10.40625-.140626-.007812-.285157-.011719-.425782-.011719-5.328125 0-9.757812 4.207031-9.984375 9.582031-.371093 8.894532-.773437 17.753907-1.199219 26.445313-5.445312.332031-11.222656.664063-17.109374.996094l-17.363282-312.433594c-.304687-5.515625-5.019531-9.75-10.539062-9.429687-5.515625.304687-9.734375 5.023437-9.429688 10.539062l17.359375 312.421875c-10.003906.550781-20.113281 1.109375-29.320312 1.667969-14.457031-104.128906-26.519531-225.257813-34.0625-342.332032v-88.195312h63.992187c.703125 31.453125 8.132813 54.679688 22.140625 69.132812 6.675781 6.882813 13.574219 10.410157 18.960938 12.21875.78125 78.773438.925781 153.550782-.652344 229.214844-.117187 5.519532 4.265625 10.089844 9.789063 10.207032h.210937c5.425781 0 9.878906-4.339844 9.996094-9.789063 2.179687-104.535156 1.089843-207.246094-.441407-321.046875zm-53.992187-9.9375v-20.90625h33.992187v20.90625zm-194.128906 20h20.128906c-.894531 37.550781-12.089844 52.816406-20.851563 59.019531.214844-19.445312.460938-39.109375.722657-59.019531zm104.125-40.90625v20.90625h-50v-20.90625zm-103.992188 0h33.992188v20.90625h-33.992188zm103.992188 129.101562c-7.539063 117.058594-19.601563 238.1875-34.0625 342.332032-9.207031-.558594-19.3125-1.117188-29.316407-1.667969l14.859376-267.488281c.308593-5.515625-3.914063-10.230469-9.429688-10.539063-5.503906-.304687-10.234375 3.914063-10.539062 9.429688l-14.859376 267.5c-5.890624-.332031-11.667968-.664063-17.113281-.996094-5.472656-111.308594-5.792969-224.238281-4.617187-345.417969 5.382812-1.808594 12.277344-5.335937 18.945312-12.214844 14.007813-14.449218 21.4375-37.679687 22.140625-69.132812h63.992188zm20-129.101562h50.003906v20.90625h-50.003906zm100.496093 96.117188c-7.289062-7.515626-15.699218-23.125-16.492187-55.210938h20.125c.265625 19.964844.511719 39.59375.730469 58.960938-1.417969-1.003907-2.886719-2.226563-4.363282-3.75zm0 0"/><path d="m259.417969 406.667969c-5.519531 0-10 4.480469-10 10.003906s4.480469 10 10 10c5.523437 0 10-4.480469 10-10v-.007813c0-5.523437-4.476563-9.996093-10-9.996093zm0 0"/><path d="m60.132812 176.796875c0 5.523437 4.476563 10 10 10 5.519532 0 10-4.476563 10-10v-.007813c0-5.523437-4.480468-9.996093-10-9.996093-5.523437 0-10 4.480469-10 10.003906zm0 0"/></svg>
