<?xml version="1.0" encoding="iso-8859-1"?>
<!-- Generator: Adobe Illustrator 21.0.0, SVG Export Plug-In . SVG Version: 6.00 Build 0)  -->
<svg xmlns="http://www.w3.org/2000/svg" xmlns:xlink="http://www.w3.org/1999/xlink" version="1.1" id="Capa_1" x="0px" y="0px" viewBox="0 0 511.375 511.375" style="enable-background:new 0 0 511.375 511.375;" xml:space="preserve" width="512" height="512">
<g>
	<path d="M430.289,390.77c-4.142,0-7.5,3.358-7.5,7.5v75.605c0,12.406-10.093,22.5-22.5,22.5H88.586V113.877   c0-4.143-3.358-7.5-7.5-7.5c-4.142,0-7.5,3.357-7.5,7.5v389.998c0,4.143,3.358,7.5,7.5,7.5h319.202c20.678,0,37.5-16.822,37.5-37.5   V398.27C437.789,394.127,434.431,390.77,430.289,390.77z"/>
	<path d="M400.289,0H81.086c-4.142,0-7.5,3.357-7.5,7.5v76.377c0,4.143,3.358,7.5,7.5,7.5c4.142,0,7.5-3.357,7.5-7.5V15h311.702   c12.407,0,22.5,10.094,22.5,22.5v330.77c0,4.143,3.358,7.5,7.5,7.5s7.5-3.357,7.5-7.5V37.5C437.789,16.822,420.966,0,400.289,0z"/>
	<path d="M356.683,180.351c0.516,4.109,4.259,7.03,8.376,6.507c4.11-0.516,7.023-4.266,6.507-8.376   c-1.878-14.955-6.568-28.961-13.488-41.525c-1.131-2.061-2.327-4.084-3.584-6.071c-18.773-29.844-49.688-49.402-84.524-53.63   c-10.786-1.321-21.755-1.146-32.49,0.544c-36.734,5.721-68.694,28.567-85.948,62.484c-0.121,0.237-0.228,0.48-0.322,0.726   c-7.875,15.71-12.317,33.426-12.317,52.163s4.442,36.453,12.317,52.163c0.094,0.246,0.201,0.489,0.322,0.726   c17.254,33.917,49.214,56.763,85.948,62.484c9.678,1.523,19.552,1.819,29.305,0.889c39.694-3.726,74.699-27.285,93.059-63.373   c0.063-0.123,0.112-0.251,0.168-0.377c5.476-10.86,9.267-22.571,11.126-34.734c0.626-4.095-2.186-7.921-6.281-8.547   c-4.095-0.624-7.921,2.187-8.547,6.281c-1.295,8.474-3.68,16.69-7.016,24.485c-11.609-4.196-24.377-7.563-37.888-10.033   c1.214-9.66,1.854-19.709,1.854-29.963c0-10.254-0.641-20.303-1.854-29.963c13.523-2.473,26.301-5.843,37.918-10.044   C352.961,161.669,355.482,170.787,356.683,180.351z M255.688,294.967c-10.122,0-20.541-10.073-28.587-27.636   c-4.242-9.259-7.574-20.003-9.928-31.701c12.434-1.591,25.377-2.426,38.515-2.426c13.137,0,26.08,0.835,38.515,2.426   c-2.354,11.698-5.686,22.442-9.928,31.701C276.229,284.894,265.809,294.967,255.688,294.967z M213.463,273.578   c2.733,5.965,5.74,11.244,8.976,15.807c-22.317-7.734-41.132-23.025-53.37-42.8c10.242-3.577,21.447-6.472,33.279-8.65   C204.941,251.044,208.676,263.129,213.463,273.578z M162.085,233.167c-5.269-12.284-8.192-25.804-8.192-39.995   c0-14.191,2.923-27.711,8.192-39.995c11.609,4.196,24.375,7.562,37.886,10.032c-1.214,9.66-1.854,19.709-1.854,29.963   c0,10.254,0.641,20.303,1.854,29.963C186.46,225.606,173.694,228.972,162.085,233.167z M169.069,139.758   c12.239-19.774,31.053-35.066,53.37-42.8c-3.235,4.563-6.243,9.842-8.976,15.806c-4.787,10.449-8.523,22.535-11.115,35.643   C190.517,146.23,179.311,143.335,169.069,139.758z M227.101,119.013c8.046-17.563,18.465-27.636,28.587-27.636   c10.122,0,20.541,10.072,28.587,27.636c4.242,9.259,7.574,20.003,9.928,31.701c-12.434,1.591-25.377,2.426-38.515,2.426   c-13.137,0-26.08-0.835-38.515-2.426C219.527,139.015,222.859,128.272,227.101,119.013z M342.335,246.596   c-5.402,8.747-12.134,16.708-20.033,23.55c-9.858,8.54-21.198,15.009-33.343,19.208c3.227-4.556,6.227-9.825,8.953-15.775   c4.787-10.449,8.523-22.535,11.115-35.642C320.869,240.116,332.085,243.013,342.335,246.596z M298.258,193.172   c0,9.483-0.577,18.752-1.67,27.641c-13.225-1.716-26.975-2.608-40.901-2.608c-13.925,0-27.676,0.892-40.901,2.608   c-1.093-8.888-1.67-18.157-1.67-27.641c0-9.483,0.577-18.752,1.67-27.641c13.225,1.716,26.975,2.608,40.901,2.608   c13.925,0,27.675-0.892,40.901-2.608C297.681,174.42,298.258,183.689,298.258,193.172z M309.027,148.408   c-2.593-13.108-6.328-25.194-11.115-35.643c-2.726-5.95-5.726-11.219-8.953-15.774c22.22,7.707,41.09,22.915,53.37,42.76   C332.081,143.331,320.867,146.228,309.027,148.408z"/>
	<path d="M146.393,368.971h218.589c4.142,0,7.5-3.357,7.5-7.5s-3.358-7.5-7.5-7.5H146.393c-4.142,0-7.5,3.357-7.5,7.5   S142.251,368.971,146.393,368.971z"/>
	<path d="M175.857,396.683c-4.142,0-7.5,3.357-7.5,7.5c0,4.143,3.358,7.5,7.5,7.5h159.66c4.142,0,7.5-3.357,7.5-7.5   c0-4.143-3.358-7.5-7.5-7.5H175.857z"/>
</g>















</svg>
