<svg height="512pt" viewBox="-11 0 511 512" width="512pt" xmlns="http://www.w3.org/2000/svg" style="fill: rgba(0, 0, 0, 0.5);"><path d="m490.457031 481.03125-3.847656-39.625c0-.003906 0-.003906 0-.003906l-36.109375-371.886719v-59.515625c0-5.523438-4.476562-10-10-10h-154.988281c-.003907 0-.007813 0-.011719 0s-.003906 0-.007812 0h-134.988282c-5.523437 0-10 4.476562-10 10s4.476563 10 10 10h4.621094v40h-94.621094v-40c5.519532 0 10-4.476562 10-10s-4.480468-10-10-10h-10c-5.523437 0-10 4.476562-10 10v59.515625l-36.109375 371.882813v.003906.003906l-3.847656 39.625c-.53125 5.496094 3.488281 10.382812 8.984375 10.917969l205 20.003906c5.300781.515625 10.082031-3.21875 10.859375-8.492187l20.109375-136.0625 20.109375 136.0625c.730469 4.945312 4.980469 8.539062 9.882813 8.539062.324218 0 .652343-.015625.980468-.046875l205-20.003906c5.496094-.535157 9.515625-5.421875 8.984375-10.917969zm-59.03125-401.03125 5.410157 55.734375c-25.03125-7.921875-43.136719-26.308594-54.949219-55.734375zm-73.675781-20h-62.25v-40h62.25zm2.785156 20c14.9375 42.492188 41.253906 68.363281 78.367188 77.023438l2.023437 20.839843c-61.683593-11.226562-89.222656-59.011719-101.480469-97.863281zm69.964844-20h-52.75v-40h52.75zm-155-40v40h-100.375v-40zm-40 278.265625-22.671875 153.425781-187.5625-18.300781 22.808594-234.902344 2.914062-.480469c58.59375-9.648437 100.101563-48.804687 120.03125-113.230468l1.480469-4.777344h63zm-126.382812-218.265625c-11.8125 29.425781-29.917969 47.8125-54.949219 55.734375l5.410156-55.734375zm42.441406 0c-12.261719 38.851562-39.796875 86.636719-101.480469 97.863281l2.019531-20.839843c37.117188-8.660157 63.429688-34.53125 78.371094-77.023438zm103.941406 0h20v108.484375c0 13.039063-8.359375 24.160156-20 28.285156zm-234.082031 393.015625 1.917969-19.71875 186.5625 18.203125-2.898438 19.621094zm262.585937 18.105469-2.898437-19.621094 77.757812-7.585938c5.496094-.535156 9.519531-5.429687 8.980469-10.925781-.535156-5.496093-5.421875-9.515625-10.921875-8.980469l-78.746094 7.683594-22.675781-153.425781v-60.785156c22.796875-4.644531 40-24.851563 40-48.996094v-108.484375h23.003906l1.476563 4.777344c19.933593 64.425781 61.4375 103.582031 120.035156 113.230468l2.914063.476563 22.804687 234.90625-19.242187 1.878906c-5.496094.535157-9.519532 5.425781-8.980469 10.921875.503906 5.167969 4.855469 9.03125 9.941406 9.03125.324219 0 .652344-.019531.980469-.050781l19.234375-1.875 1.914062 19.71875zm0 0"/><path d="m401.261719 439.695312c-5.46875.78125-9.265625 5.84375-8.484375 11.3125.710937 4.988282 4.988281 8.585938 9.886718 8.585938.46875 0 .945313-.03125 1.425782-.101562h.007812c5.46875-.78125 9.261719-5.847657 8.480469-11.3125-.78125-5.46875-5.851563-9.261719-11.316406-8.484376zm0 0"/><path d="m105.5 20h.007812c5.519532 0 9.996094-4.476562 9.996094-10s-4.480468-10-10.003906-10-10 4.476562-10 10 4.476562 10 10 10zm0 0"/></svg>
