<?xml version="1.0" encoding="iso-8859-1"?>
<!-- Generator: Adobe Illustrator 19.0.0, SVG Export Plug-In . SVG Version: 6.00 Build 0)  -->
<svg version="1.1" id="Capa_1" xmlns="http://www.w3.org/2000/svg" xmlns:xlink="http://www.w3.org/1999/xlink" x="0px" y="0px"
	 viewBox="0 0 496 496" style="enable-background:new 0 0 496 496;" xml:space="preserve">
<g>
	<g>
		<path d="M446.4,224l-11.2-11.2V8c0-4.8-3.2-8-8-8h-272c-4.8,0-8,3.2-8,8v236.8l-94.4,94.4c-16,16-25.6,38.4-25.6,61.6v7.2
			c0,48.8,39.2,88,88,88h7.2c19.2,0,37.6-6.4,52.8-17.6c15.2,11.2,33.6,17.6,52.8,17.6h7.2c23.2,0,45.6-9.6,62.4-25.6l120-120
			l11.2-5.6c24.8-12,40-36.8,40-64v-5.6C467.2,255.2,460,236.8,446.4,224z M323.2,16h96v32h-96V16z M323.2,64h96v16h-96V64z
			 M309.6,221.6l13.6,13.6c10.4,10.4,16.8,24.8,16.8,39.2v5.6c0,21.6-12,40.8-31.2,50.4l-7.2,4l-7.2-7.2c-12-12-18.4-28-18.4-45.6
			v-4c0-16.8,6.4-33.6,18.4-45.6l13.6-13.6C308,219.2,308.8,220.8,309.6,221.6z M163.2,16h144v32h-144V16z M163.2,64h144v16h-144V64
			z M122.4,480h-7.2c-40,0-72-32-72-72v-7.2c0-17.6,6.4-35.2,19.2-48.8c27.2,0,52.8,11.2,72,30.4l6.4,6.4
			c19.2,19.2,30.4,44.8,30.4,72C157.6,472.8,140.8,480,122.4,480z M152,377.6l-6.4-6.4c-18.4-18.4-42.4-30.4-68.8-33.6l84-84
			c1.6-1.6,2.4-3.2,2.4-5.6V96h144v100.8l-24.8,24.8c-15.2,14.4-23.2,35.2-23.2,56v4c0,21.6,8,41.6,23.2,56.8l5.6,5.6L185.6,446.4
			C182.4,420.8,170.4,396.8,152,377.6z M234.4,480h-7.2c-14.4,0-28.8-4-40-12l72-72c15.2,18.4,24,40.8,24,64.8
			C269.6,473.6,252,480,234.4,480z M297.6,445.6c-3.2-22.4-12.8-44-28-61.6l33.6-33.6l11.2-5.6c24.8-12,40-36.8,40-64.8v-5.6
			c0-19.2-7.2-37.6-20.8-51.2l-10.4-10.4V96h96v100.8l-24.8,24.8c-15.2,14.4-23.2,35.2-23.2,56v4c0,21.6,8,41.6,23.2,56.8l5.6,5.6
			L297.6,445.6z M420,331.2l-7.2,4l-7.2-7.2c-12-12-18.4-28-18.4-45.6v-4c0-16.8,6.4-33.6,18.4-45.6l13.6-13.6
			c0,0.8,0.8,2.4,1.6,3.2l13.6,13.6c10.4,10.4,16.8,24.8,16,39.2v5.6h0.8C451.2,302.4,439.2,321.6,420,331.2z"/>
	</g>
</g>
<g>
</g>
<g>
</g>
<g>
</g>
<g>
</g>
<g>
</g>
<g>
</g>
<g>
</g>
<g>
</g>
<g>
</g>
<g>
</g>
<g>
</g>
<g>
</g>
<g>
</g>
<g>
</g>
<g>
</g>
</svg>
