<svg height="512pt" viewBox="-134 0 512 512" width="512pt" xmlns="http://www.w3.org/2000/svg" style="fill: rgba(0, 0, 0, 0.5);"><path d="m243.375 7.574219c0-4.183594-3.390625-7.574219-7.574219-7.574219h-29.789062c-4.183594 0-7.574219 3.390625-7.574219 7.574219 0 4.183593 3.390625 7.574219 7.574219 7.574219h22.214843v25.246093h-23.226562v-6.566406c0-4.179687-3.390625-7.570313-7.574219-7.570313-4.183593 0-7.574219 3.390626-7.574219 7.570313v6.566406h-15.148437v-6.566406c0-4.179687-3.390625-7.570313-7.570313-7.570313-4.183593 0-7.574218 3.390626-7.574218 7.570313v6.566406h-15.148438v-6.566406c0-4.179687-3.390625-7.570313-7.574218-7.570313-4.183594 0-7.574219 3.390626-7.574219 7.570313v6.566406h-15.148438v-6.566406c0-4.179687-3.390625-7.570313-7.574219-7.570313-4.183593 0-7.574218 3.390626-7.574218 7.570313v6.566406h-15.148438v-6.566406c0-4.179687-3.390625-7.570313-7.574218-7.570313-4.179688 0-7.570313 3.390626-7.570313 7.570313v6.566406h-15.148437v-6.566406c0-4.179687-3.390626-7.570313-7.574219-7.570313-4.183594 0-7.574219 3.390626-7.574219 7.570313v6.566406h-23.226562v-25.246093h155.539062c4.183594 0 7.574219-3.390626 7.574219-7.574219 0-4.183594-3.390625-7.574219-7.574219-7.574219h-163.113281c-4.183594 0-7.574219 3.390625-7.574219 7.574219v40.394531c0 .050781.0078125.097656.0078125.148438 0 .050781-.00390625.097656 0 .148437l3.6953125 93.921875c.160156 4.078125 3.515625 7.277344 7.5625 7.277344.101563 0 .203125-.003906.304687-.007813 4.175782-.164062 7.433594-3.6875 7.269532-7.867187l-3.386719-86.046875h212.472656l-8.429687 214.117187c-.882813 22.367188-4.160156 44.695313-9.75 66.367188l-23.238282 90.132812h-129.640624l-23.238282-90.132812c-5.585937-21.671875-8.867187-44-9.746094-66.367188l-3.640624-92.433594c-.164063-4.179687-3.691407-7.441406-7.867188-7.269531-4.179688.164063-7.433594 3.6875-7.269531 7.867188l3.640625 92.433593c.921875 23.4375 4.359375 46.839844 10.214844 69.554688l24.464843 94.882812v49.535157c0 15.3125 12.457031 27.769531 27.769531 27.769531h59.042969c4.183594 0 7.574219-3.390625 7.574219-7.574219 0-4.183593-3.390625-7.574219-7.574219-7.574219h-59.042969c-6.960937 0-12.625-5.664062-12.625-12.621093v-4.546875h38.882813c2.007813 0 3.933594-.796875 5.355469-2.214844l7.878906-7.882812h22.003906l7.878906 7.882812c1.421876 1.417969 3.347657 2.214844 5.355469 2.214844h38.878907v4.546875c0 6.960937-5.660157 12.621093-12.621094 12.621093h-6.46875c-4.183594 0-7.574219 3.390626-7.574219 7.574219 0 4.183594 3.390625 7.574219 7.574219 7.574219h6.46875c15.3125 0 27.769531-12.457031 27.769531-27.769531v-49.535157l24.464844-94.882812c5.855469-22.714844 9.292969-46.117188 10.214843-69.554688l8.738282-221.992187c.003906-.050781 0-.097656 0-.148437 0-.050782.007812-.097657.007812-.148438v-40.394531zm-94.3125 456.960937-7.878906-7.878906c-1.421875-1.421875-3.347656-2.21875-5.359375-2.21875h-28.273438c-2.011719 0-3.9375.796875-5.355469 2.21875l-7.882812 7.878906h-35.742188v-23.226562h126.234376v23.226562zm0 0"/><path d="m63.621094 187.328125c0 32.019531 26.046875 58.066406 58.066406 58.066406s58.066406-26.046875 58.066406-58.066406c0-32.015625-26.046875-58.066406-58.066406-58.066406s-58.066406 26.050781-58.066406 58.066406zm58.066406-42.917969c23.667969 0 42.917969 19.253906 42.917969 42.917969 0 23.667969-19.25 42.921875-42.917969 42.921875-23.664062 0-42.917969-19.253906-42.917969-42.921875 0-23.664063 19.253907-42.917969 42.917969-42.917969zm0 0"/><path d="m129.261719 116.640625v-10.101563c0-4.183593-3.390625-7.574218-7.574219-7.574218s-7.574219 3.390625-7.574219 7.574218v10.101563c0 4.179687 3.390625 7.574219 7.574219 7.574219s7.574219-3.394532 7.574219-7.574219zm0 0"/><path d="m69.917969 124.847656c-2.957031-2.957031-7.753907-2.957031-10.710938 0-2.960937 2.957032-2.960937 7.753906 0 10.710938l7.140625 7.140625c1.476563 1.480469 3.417969 2.21875 5.355469 2.21875s3.875-.738281 5.355469-2.21875c2.957031-2.957031 2.957031-7.753907 0-10.710938zm0 0"/><path d="m50.996094 179.753906h-10.097656c-4.183594 0-7.574219 3.390625-7.574219 7.574219s3.390625 7.574219 7.574219 7.574219h10.097656c4.183594 0 7.574218-3.390625 7.574218-7.574219s-3.390624-7.574219-7.574218-7.574219zm0 0"/><path d="m77.058594 231.960938c-2.957032-2.957032-7.753906-2.957032-10.710938 0l-7.140625 7.140624c-2.960937 2.957032-2.960937 7.753907 0 10.710938 1.476563 1.480469 3.414063 2.21875 5.355469 2.21875 1.9375 0 3.875-.742188 5.355469-2.21875l7.140625-7.140625c2.957031-2.957031 2.957031-7.753906 0-10.710937zm0 0"/><path d="m129.261719 268.117188v-10.097657c0-4.183593-3.390625-7.574219-7.574219-7.574219s-7.574219 3.390626-7.574219 7.574219v10.097657c0 4.183593 3.390625 7.574218 7.574219 7.574218s7.574219-3.390625 7.574219-7.574218zm0 0"/><path d="m173.460938 249.8125c1.476562 1.476562 3.414062 2.21875 5.351562 2.21875 1.941406 0 3.878906-.742188 5.359375-2.21875 2.957031-2.957031 2.957031-7.753906-.003906-10.710938l-7.140625-7.140624c-2.957032-2.960938-7.75-2.957032-10.710938 0-2.957031 2.957031-2.957031 7.75 0 10.710937zm0 0"/><path d="m192.378906 194.902344h10.097656c4.183594 0 7.574219-3.390625 7.574219-7.574219s-3.390625-7.574219-7.574219-7.574219h-10.097656c-4.183594 0-7.574218 3.390625-7.574218 7.574219s3.390624 7.574219 7.574218 7.574219zm0 0"/><path d="m173.460938 124.847656-7.144532 7.140625c-2.957031 2.957031-2.957031 7.753907 0 10.710938 1.480469 1.480469 3.417969 2.21875 5.355469 2.21875s3.878906-.738281 5.355469-2.21875l7.140625-7.140625c2.960937-2.957032 2.960937-7.753906.003906-10.710938-2.957031-2.957031-7.753906-2.957031-10.710937 0zm0 0"/><path d="m165.617188 298.414062c0-4.183593-3.390626-7.574218-7.574219-7.574218h-80.789063c-4.183594 0-7.574218 3.390625-7.574218 7.574218 0 4.183594 3.390624 7.574219 7.574218 7.574219h80.789063c4.183593 0 7.574219-3.390625 7.574219-7.574219zm0 0"/><path d="m87.351562 321.136719c-4.179687 0-7.574218 3.390625-7.574218 7.574219 0 4.183593 3.394531 7.574218 7.574218 7.574218h60.59375c4.183594 0 7.574219-3.390625 7.574219-7.574218 0-4.183594-3.390625-7.574219-7.574219-7.574219zm0 0"/></svg>
