<svg height="512pt" viewBox="0 0 512 512" width="512pt" xmlns="http://www.w3.org/2000/svg"><path d="m168.28125 0h-155.5625c-7.011719 0-12.71875 5.707031-12.71875 12.71875v416.179688c0 16.457031 12.074219 30.144531 27.828125 32.675781v30.28125c0 11.109375 9.039063 20.144531 20.144531 20.144531h84.710938c11.109375 0 20.144531-9.035156 20.144531-20.144531v-30.222657c15.921875-2.390624 28.171875-16.15625 28.171875-32.734374v-109.230469c0-4.144531-3.355469-7.5-7.5-7.5s-7.5 3.355469-7.5 7.5v27.863281h-151v-292.53125h151v232.667969c0 4.140625 3.355469 7.5 7.5 7.5s7.5-3.359375 7.5-7.5v-274.949219c0-7.011719-5.707031-12.71875-12.71875-12.71875zm-30.453125 491.855469c0 2.835937-2.308594 5.144531-5.144531 5.144531h-84.710938c-2.835937 0-5.144531-2.308594-5.144531-5.144531v-29.855469h95zm10.070313-44.855469h-114.796876c-9.980468 0-18.101562-8.121094-18.101562-18.101562v-36.367188h151v36.367188c0 9.980468-8.121094 18.101562-18.101562 18.101562zm18.101562-84.46875v15h-151v-15zm-151-322.53125v-25h151v25zm0 0"/><path d="m500.5 0h-112c-6.339844 0-11.5 5.160156-11.5 11.5v52.5c0 4.140625 3.355469 7.5 7.5 7.5s7.5-3.359375 7.5-7.5v-9h105v377.5c0 7.996094-6.503906 14.5-14.5 14.5h-76c-7.996094 0-14.5-6.503906-14.5-14.5v-338.277344c0-4.140625-3.355469-7.5-7.5-7.5s-7.5 3.359375-7.5 7.5v338.277344c0 16.265625 13.234375 29.5 29.5 29.5h.5v32.5c0 9.648438 7.851562 17.5 17.5 17.5h40c9.648438 0 17.5-7.851562 17.5-17.5v-32.5h.5c16.265625 0 29.5-13.234375 29.5-29.5v-421c0-6.339844-5.160156-11.5-11.5-11.5zm-33.5 494.5c0 1.378906-1.121094 2.5-2.5 2.5h-40c-1.378906 0-2.5-1.121094-2.5-2.5v-32.5h45zm-75-454.5v-25h105v25zm0 0"/><path d="m306 159.5c4.144531 0 7.5-3.359375 7.5-7.5v-128c0-4.140625-3.355469-7.5-7.5-7.5h-63.320312c-2.632813-9.503906-11.351563-16.5-21.679688-16.5-12.40625 0-22.5 10.09375-22.5 22.5v467c0 12.40625 10.09375 22.5 22.5 22.5s22.5-10.09375 22.5-22.5v-330zm-7.5-15h-55v-14h38.5c4.144531 0 7.5-3.359375 7.5-7.5s-3.355469-7.5-7.5-7.5h-38.5v-20h38.5c4.144531 0 7.5-3.359375 7.5-7.5s-3.355469-7.5-7.5-7.5h-38.5v-20h38.5c4.144531 0 7.5-3.359375 7.5-7.5s-3.355469-7.5-7.5-7.5h-38.5v-14h55zm-70 345c0 4.136719-3.363281 7.5-7.5 7.5s-7.5-3.363281-7.5-7.5v-467c0-4.136719 3.363281-7.5 7.5-7.5s7.5 3.363281 7.5 7.5zm0 0"/><path d="m348 245h-4.5v-18.5c0-7.445312-6.054688-13.5-13.5-13.5h-34c-7.445312 0-13.5 6.054688-13.5 13.5v18.5h-4.5c-7.445312 0-13.5 6.054688-13.5 13.5v189.25c0 4.140625 3.355469 7.5 7.5 7.5s7.5-3.359375 7.5-7.5v-112.582031h67v161.832031h-67v-17.5c0-4.140625-3.355469-7.5-7.5-7.5s-7.5 3.359375-7.5 7.5v19c0 7.445312 6.054688 13.5 13.5 13.5h70c7.445312 0 13.5-6.054688 13.5-13.5v-240c0-7.445312-6.054688-13.5-13.5-13.5zm-50.5-17h31v17h-31zm49 32v30.167969h-67v-30.167969zm-67 60.167969v-15h67v15zm0 0"/></svg>