<svg id="Capa_1" enable-background="new 0 0 512 512" height="512" viewBox="0 0 512 512" width="512" xmlns="http://www.w3.org/2000/svg" style="fill: rgba(0, 0, 0, 0.5);"><circle cx="256" cy="106" r="10"/><path d="m482 96h-181c-5.522 0-10 4.478-10 10s4.478 10 10 10h181c5.514 0 10 4.486 10 10v30h-472v-30c0-5.514 4.486-10 10-10h181c5.523 0 10-4.478 10-10s-4.477-10-10-10h-181c-16.542 0-30 13.458-30 30v110c0 16.542 13.458 30 30 30h10c67.601 0 130.396 55.461 138.979 123.742 1.888 14.97 14.674 26.258 29.741 26.258h94.56c15.073 0 27.858-11.29 29.741-26.263 8.586-68.296 71.397-123.737 138.979-123.737h10c16.542 0 30-13.458 30-30v-110c0-16.542-13.458-30-30-30zm-452 150c-5.514 0-10-4.486-10-10v-60h100v92.988c-24.74-14.918-52.549-22.988-80-22.988zm283.178 141.243c-.628 4.992-4.883 8.757-9.897 8.757h-94.56c-5.013 0-9.269-3.767-9.898-8.757-5.001-39.781-26.351-77.458-58.822-104.119v-107.124h232v107.123c-32.472 26.661-53.822 64.339-58.823 104.12zm168.822-141.243h-10c-27.45 0-55.259 8.07-80 22.988v-92.988h100v60c0 5.514-4.486 10-10 10z"/></svg>
