<svg height="480pt" viewBox="-25 0 480 480" width="480pt" xmlns="http://www.w3.org/2000/svg"><path d="m27.0625 267.441406c2.5-33.445312 30.304688-59.335937 63.839844-59.441406h10.753906v-16h-10.753906c-41.917969.128906-76.679688 32.492188-79.796875 74.296875l-2.082031 29.136719 16 1.132812zm0 0"/><path d="m53.65625 344.566406 5.34375-74.847656c1.246094-16.714844 15.140625-29.660156 31.902344-29.71875h34.753906v36.6875l-21.65625 21.65625 11.3125 11.3125 56-56c5.746094-5.503906 14.839844-5.40625 20.46875.21875 5.625 5.628906 5.722656 14.722656.21875 20.46875l-56 56c-3.125 3.125-3.125 8.1875 0 11.3125 14.519531 14.5625 14.519531 38.125 0 52.6875l-56 56 11.3125 11.3125 34.34375-34.34375v44.6875c0 4.417969 3.582031 8 8 8h256c4.417969 0 8-3.582031 8-8v-352c0-4.417969-3.582031-8-8-8h-24v-16c0-2.121094-.84375-4.15625-2.34375-5.65625l-10.34375-10.34375 10.34375-10.34375c1.5-1.5 2.34375-3.535156 2.34375-5.65625v-56c0-4.417969-3.582031-8-8-8h-192c-4.417969 0-8 3.582031-8 8v56c0 2.121094.84375 4.15625 2.34375 5.65625l10.34375 10.34375-10.34375 10.34375c-1.5 1.5-2.34375 3.535156-2.34375 5.65625v16h-24c-4.417969 0-8 3.582031-8 8v104h-34.753906c-25.148438.078125-46.007813 19.496094-47.878906 44.574219l-5.136719 71.882812-37.886719 37.886719 11.3125 11.3125 40-40c1.367188-1.359375 2.199219-3.164062 2.34375-5.089844zm120-245.253906 13.65625-13.65625c3.121094-3.125 3.121094-8.1875 0-11.3125l-13.65625-13.65625v-44.6875h176v44.6875l-13.65625 13.65625c-3.125 3.125-3.125 8.1875 0 11.3125l13.65625 13.65625v12.6875h-176zm208 28.6875v336h-240v-52.6875l5.65625-5.65625c18.578125-18.628906 20.800781-48.023438 5.230469-69.230469l50.769531-50.769531c11.960938-11.960938 11.960938-31.351562 0-43.3125s-31.351562-11.960938-43.3125 0l-18.34375 18.34375v-132.6875zm0 0"/><path d="m205.65625 72h16v16h-16zm0 0"/><path d="m237.65625 72h16v16h-16zm0 0"/><path d="m269.65625 72h16v16h-16zm0 0"/><path d="m301.65625 72h16v16h-16zm0 0"/><path d="m261.65625 176c5.054688 0 10.089844.539062 15.03125 1.601562l-5.152344 15.453126-35.480468 7.105468c-3.03125.605469-5.441407 2.90625-6.191407 5.902344l-8 32c-.503906 2-.214843 4.113281.800781 5.90625l32 56c1.097657 1.925781 2.945313 3.3125 5.105469 3.824219.617188.140625 1.25.210937 1.886719.207031 1.578125 0 3.125-.46875 4.441406-1.34375l24-16c1.761719-1.179688 2.984375-3.007812 3.398438-5.089844l7.289062-36.421875 29.984375-17.144531c8.570313 29.722656-2.804687 61.597656-28.253906 79.183594-25.453125 17.585937-59.289063 16.945312-84.058594-1.582032l-9.601562 12.796876c29.96875 22.472656 70.878906 23.511718 101.949219 2.585937 31.070312-20.925781 45.488281-59.222656 35.929687-95.441406-9.554687-36.21875-40.992187-62.417969-78.339844-65.289063-37.347656-2.871094-72.421875 18.214844-87.402343 52.546875l14.664062 6.398438c11.453125-26.242188 37.367188-43.203125 66-43.199219zm62.9375 37.113281-34.9375 19.941407c-2.007812 1.148437-3.417969 3.109374-3.871094 5.378906l-7.328125 36.765625-14.113281 9.410156-26.160156-45.761719 6-24 35.074218-7.007812c2.8125-.5625 5.113282-2.589844 6.023438-5.3125l6.597656-19.800782c13.832032 6.429688 25.28125 17.0625 32.714844 30.386719zm0 0"/><path d="m197.65625 360h128v16h-128zm0 0"/><path d="m197.65625 392h128v16h-128zm0 0"/><path d="m253.65625 424h16v16h-16zm0 0"/><path d="m221.65625 424h16v16h-16zm0 0"/><path d="m285.65625 424h16v16h-16zm0 0"/><path d="m413.65625 248h16v160h-16zm0 0"/><path d="m413.65625 424h16v16h-16zm0 0"/></svg>